<?xml version="1.0" standalone="no"?>
<!DOCTYPE svg PUBLIC "-//W3C//DTD SVG 20010904//EN"
 "http://www.w3.org/TR/2001/REC-SVG-20010904/DTD/svg10.dtd">
<svg version="1.0" xmlns="http://www.w3.org/2000/svg"
 width="512.000000pt" height="512.000000pt" viewBox="0 0 512.000000 512.000000"
 preserveAspectRatio="xMidYMid meet">
<metadata>
Created by potrace 1.14, written by Peter Selinger 2001-2017
</metadata>
<g transform="translate(0.000000,512.000000) scale(0.100000,-0.100000)"
fill="#000000" stroke="none">
<path d="M345 5106 c-86 -22 -148 -57 -212 -123 -64 -64 -96 -120 -119 -208
-11 -41 -14 -436 -14 -2206 0 -1318 4 -2176 9 -2206 30 -154 144 -281 311
-345 29 -11 427 -13 2220 -15 1448 -2 2200 1 2229 8 145 33 274 149 327 294
18 48 19 137 21 2235 2 1476 -1 2200 -8 2230 -34 150 -153 277 -306 329 -57
19 -104 19 -2233 19 -1711 0 -2186 -2 -2225 -12z m4381 -301 c42 -17 56 -31
78 -72 14 -28 16 -81 16 -423 l0 -390 -2260 0 -2260 0 0 392 0 391 24 41 c22
38 44 56 86 69 8 3 975 6 2148 6 1851 1 2137 -1 2168 -14z m94 -2785 c0 -1552
-1 -1602 -19 -1638 -11 -22 -35 -46 -59 -60 l-40 -22 -2142 0 -2143 0 -42 25
c-82 47 -75 -102 -75 1694 l0 1601 2260 0 2260 0 0 -1600z"/>
<path d="M701 4505 c-118 -53 -121 -210 -4 -269 25 -12 62 -16 163 -16 111 0
137 3 170 20 45 23 80 80 80 131 0 39 -35 103 -69 127 -37 24 -289 30 -340 7z"/>
<path d="M1480 4494 c-89 -62 -92 -181 -7 -245 29 -22 43 -24 161 -28 130 -3
195 7 222 33 28 29 54 83 54 115 0 19 -11 53 -25 76 -36 63 -75 75 -238 75
-124 -1 -134 -3 -167 -26z"/>
<path d="M2293 4502 c-114 -62 -108 -217 10 -267 26 -11 73 -15 162 -15 150 0
192 15 225 80 27 52 25 94 -5 145 -36 62 -76 75 -233 75 -100 -1 -134 -4 -159
-18z"/>
<path d="M573 2540 c-12 -5 -30 -21 -40 -37 -17 -25 -18 -63 -19 -548 -1 -560
-2 -556 50 -591 21 -13 58 -15 253 -12 221 3 230 4 283 29 240 112 297 413
114 599 -42 43 -43 47 -29 67 27 38 46 106 47 163 2 138 -68 250 -192 309 -53
25 -63 26 -250 28 -107 1 -205 -2 -217 -7z m394 -210 c44 -26 64 -61 65 -109
0 -48 -21 -84 -65 -111 -27 -17 -51 -20 -142 -20 l-111 0 0 130 0 130 110 0
c92 0 116 -3 143 -20z m50 -455 c47 -20 70 -41 88 -79 29 -63 24 -120 -17
-179 -38 -53 -78 -65 -234 -66 l-141 -2 1 171 0 170 133 0 c98 0 144 -4 170
-15z"/>
<path d="M1565 2528 c-14 -13 -29 -36 -33 -53 -6 -23 -9 -990 -3 -1053 0 -8
14 -27 30 -43 l29 -29 210 0 c194 0 211 1 235 20 52 42 52 121 -2 159 -26 19
-44 21 -168 21 l-138 0 0 453 c1 248 -3 464 -8 480 -21 63 -102 88 -152 45z"/>
<path d="M2529 2530 c-270 -70 -452 -303 -453 -580 0 -283 189 -517 474 -586
78 -19 229 -12 307 15 242 82 409 304 414 551 2 82 -9 165 -27 210 -40 94 -83
165 -133 219 -151 160 -375 226 -582 171z m236 -191 c188 -50 311 -210 307
-400 -8 -349 -436 -517 -681 -267 -178 181 -142 484 73 617 85 53 211 74 301
50z"/>
<path d="M3925 2529 c-33 -9 -78 -25 -100 -34 -137 -59 -268 -205 -319 -356
-83 -245 8 -526 219 -673 321 -226 724 -107 844 250 35 104 46 233 24 276 -28
56 -44 60 -248 56 l-187 -3 -24 -28 c-15 -18 -24 -41 -24 -63 0 -82 39 -104
184 -104 l104 0 -12 -47 c-60 -225 -269 -313 -492 -208 -59 28 -140 106 -168
162 -10 21 -22 46 -27 55 -5 9 -11 32 -15 50 -26 141 11 268 108 367 84 86
178 122 306 117 67 -2 89 -8 153 -39 84 -42 112 -47 150 -28 48 24 66 86 39
137 -16 29 -91 73 -180 104 -86 30 -247 35 -335 9z"/>
</g>
</svg>
